<svg width="48" height="48" viewBox="0 0 48 48" fill="none" xmlns="http://www.w3.org/2000/svg">
<path fill-rule="evenodd" clip-rule="evenodd" d="M40.5537 17.8051C40.1276 16.1534 39.5636 14.4803 38.8839 12.7572C37.5423 10.0294 35.1069 9.09345 33.5101 9.82881C27.1624 12.7804 25.4556 14.653 23.9652 14.7257C22.3986 14.8022 21.0611 12.9282 14.3957 9.82881C12.7988 9.09345 10.3635 10.0293 9.02191 12.7572C8.34789 14.4656 7.78783 16.1248 7.36312 17.7627L9.39131 24.7978C9.47531 25.0892 9.5861 25.3699 9.73029 25.6363C10.6652 25.315 11.7246 25.3656 12.6225 25.793C12.8994 22.6295 13.4654 19.9667 14.3203 17.805C14.8807 16.3882 15.1672 15.2903 16.8444 15.1516C17.5468 15.0935 18.2502 15.2917 18.9544 15.7461C19.814 16.1846 21.9179 16.9311 24.0101 16.927C26.0645 16.923 28.1079 16.1763 28.9514 15.7461C29.6556 15.2917 30.359 15.0935 31.0614 15.1516C32.7386 15.2903 33.0251 16.3882 33.5855 17.805C34.4427 19.9722 35.0093 22.6428 35.2855 25.8167C36.1853 25.3859 37.2497 25.3365 38.186 25.6636C38.3355 25.3908 38.4497 25.103 38.536 24.804L40.5537 17.8051ZM27.9677 33.2522L35.547 27.2605C36.8847 26.2077 39.0677 27.0205 38.9986 28.2504C38.9804 28.5735 38.8065 28.8722 38.5361 29.0841L32.8228 33.5607C32.5359 33.7848 32.4849 34.1993 32.709 34.4862C32.9332 34.7732 33.3476 34.8241 33.6346 34.6L39.3478 30.1234C40.5463 29.1842 40.659 27.5047 39.5562 26.445C39.5134 26.4038 39.4666 26.3696 39.4169 26.3422C39.6204 25.9792 39.7802 25.5912 39.9016 25.1706L42.1067 17.522C42.2802 16.9198 42.8845 16.5108 43.6001 16.5108C44.0913 16.5108 44.4699 16.614 44.8178 16.9418C45.12 17.2267 45.2561 17.5708 45.2191 17.9566C44.8321 21.9834 44.9296 28.636 42.7234 32.056C41.1275 34.5297 38.9715 35.3852 36.8314 37.4017C34.9478 39.1767 34.2377 41.1462 34.0145 43.2372C33.9104 44.2135 33.095 44.9531 32.1131 44.9465L24.7745 44.8968V38.7341C24.7746 36.1347 26.1289 34.8885 27.9677 33.2522ZM20.0318 33.2522C21.8705 34.8884 23.2248 36.1347 23.2248 38.7341V44.8968L15.8863 44.9465C14.9044 44.9531 14.089 44.2135 13.9848 43.2372C13.7617 41.1462 13.0515 39.1766 11.168 37.4017C9.02795 35.3852 6.87189 34.5297 5.27608 32.056C3.06981 28.6362 3.16735 21.9835 2.78037 17.9566C2.74331 17.5709 2.87944 17.2268 3.18165 16.9419C3.52955 16.6141 3.90818 16.5109 4.39931 16.5109C5.11499 16.5109 5.71922 16.9199 5.89279 17.5221L8.09791 25.1707C8.21915 25.5913 8.37899 25.9793 8.58251 26.3423C8.53288 26.3697 8.48603 26.4039 8.44322 26.4451C7.34047 27.5048 7.45317 29.1843 8.65163 30.1235L14.3649 34.6001C14.6518 34.8242 15.0663 34.7734 15.2904 34.4863C15.5146 34.1993 15.4637 33.7849 15.1767 33.5608L9.46341 29.0842C9.19298 28.8723 9.01903 28.5736 9.00088 28.2505C8.93176 27.0206 11.1148 26.2078 12.4525 27.2606L20.0318 33.2522ZM16.0779 3.23524C17.7964 3.23524 19.1895 4.62829 19.1895 6.34679C19.1895 8.06529 17.7964 9.45834 16.0779 9.45834C14.3594 9.45834 12.9664 8.06529 12.9664 6.34679C12.9663 4.62829 14.3594 3.23524 16.0779 3.23524ZM32.622 3.05322C34.3405 3.05322 35.7335 4.44628 35.7335 6.16477C35.7335 7.88327 34.3405 9.27633 32.622 9.27633C30.9035 9.27633 29.5104 7.88327 29.5104 6.16477C29.5104 4.44637 30.9035 3.05322 32.622 3.05322Z" fill="url(#paint0_linear_654_104)"/>
<defs>
<linearGradient id="paint0_linear_654_104" x1="23.9997" y1="3.05322" x2="23.9997" y2="44.9465" gradientUnits="userSpaceOnUse">
<stop/>
<stop offset="1" stop-color="#711F45"/>
</linearGradient>
</defs>
</svg>
