<svg width="40" height="40" viewBox="0 0 40 40" fill="none" xmlns="http://www.w3.org/2000/svg">
<path d="M25.8189 21.1719C25.2744 23.843 22.8293 25.8594 20 25.8594C17.1706 25.8594 14.8036 23.843 14.2592 21.1719H11.9153C12.49 25.1367 15.8785 28.2031 20 28.2031C24.1215 28.2031 27.588 25.1367 28.1628 21.1719H25.8189Z" fill="#FAFAFA"/>
<path d="M30.5066 21.1719C29.9149 26.4309 25.4146 30.5469 20 30.5469C14.5854 30.5469 10.1632 26.4309 9.57156 21.1719H0V22.3438C0 22.8484 0.323906 23.297 0.802266 23.4561L5.62398 25.0297C5.82656 25.6042 6.04055 26.1272 6.26945 26.6101L4.04469 31.0802C3.82039 31.531 3.90961 32.0746 4.26555 32.4305L7.56945 35.7345C7.92766 36.0927 8.47008 36.1773 8.91984 35.9553L13.3899 33.7305C13.8729 33.9595 14.3959 34.1734 14.9703 34.376L16.5439 39.1977C16.703 39.6761 17.1516 40 17.6562 40H22.4219C22.9266 40 23.3752 39.6761 23.5342 39.1977L25.1078 34.376C25.6823 34.1734 26.2053 33.9595 26.6882 33.7305L31.1583 35.9553C31.608 36.1784 32.1516 36.0927 32.5087 35.7345L35.8126 32.4305C36.1685 32.0746 36.2577 31.531 36.0334 31.0802L33.8087 26.6101C34.0376 26.1271 34.2516 25.6041 34.4541 25.0297L39.1977 23.4561C39.6761 23.297 40 22.8484 40 22.3438V21.1719H30.5066Z" fill="#FAFAFA"/>
<path d="M16.7002 21.1719C17.1856 22.533 18.4742 23.5156 20 23.5156C21.5257 23.5156 22.8925 22.533 23.3779 21.1719H16.7002Z" fill="#FAFAFA"/>
<path d="M20 0C17.4148 0 15.3125 2.10227 15.3125 4.6875C15.3125 7.27273 17.4148 9.375 20 9.375C22.5852 9.375 24.7656 7.27273 24.7656 4.6875C24.7656 2.10227 22.5852 0 20 0Z" fill="#FAFAFA"/>
<path d="M31.7969 0C29.2116 0 27.1094 2.10227 27.1094 4.6875C27.1094 7.27273 29.2116 9.375 31.7969 9.375C34.3821 9.375 36.4844 7.27273 36.4844 4.6875C36.4844 2.10227 34.3821 0 31.7969 0Z" fill="#FAFAFA"/>
<path d="M8.28125 0C5.69602 0 3.59375 2.10227 3.59375 4.6875C3.59375 7.27273 5.69602 9.375 8.28125 9.375C10.8665 9.375 12.9688 7.27273 12.9688 4.6875C12.9688 2.10227 10.8665 0 8.28125 0Z" fill="#FAFAFA"/>
<path d="M35.7941 10.4595C34.6574 11.2492 33.2828 11.7186 31.7968 11.7186C30.317 11.7186 28.9466 11.2542 27.8127 10.4705C27.2987 10.7656 26.8047 11.0974 26.3574 11.4974C28.6364 13.201 30.2187 15.8617 30.5534 18.828H39.9999V17.6561C39.9999 14.5918 38.2905 11.8677 35.7941 10.4595Z" fill="#FAFAFA"/>
<path d="M20 11.7188C15.8744 11.7188 12.4503 14.8582 11.8804 18.8281H28.1976C27.6278 14.8582 24.1256 11.7188 20 11.7188Z" fill="#FAFAFA"/>
<path d="M12.2654 10.4705C11.1314 11.2542 9.76109 11.7186 8.28125 11.7186C6.79523 11.7186 5.42062 11.2492 4.28398 10.4595C1.78758 11.8677 0 14.5918 0 17.6561V18.828H9.52469C9.85938 15.8617 11.4416 13.201 13.7206 11.4974C13.2733 11.0974 12.7794 10.7656 12.2654 10.4705Z" fill="#FAFAFA"/>
</svg>
