<svg width="37" height="40" viewBox="0 0 37 40" fill="none" xmlns="http://www.w3.org/2000/svg">
<path d="M36.2649 32.9371L25.7708 13.5221V1.95614C25.7708 0.867641 24.8602 0 23.7726 0H13.0612C11.9727 0 11.077 0.867641 11.077 1.95614V13.5221L0.574182 32.9371C-0.226852 34.4173 -0.186538 36.2148 0.674968 37.6618C1.53647 39.1069 3.0991 40 4.7818 40H32.0511C33.7338 40 35.3 39.1069 36.1615 37.6618C37.0221 36.2148 37.0659 34.4173 36.2649 32.9371ZM20.1513 24.8145C21.0917 24.8145 21.8533 25.5761 21.8533 26.5165C21.8533 27.456 21.0899 28.2185 20.1513 28.2185C19.2118 28.2185 18.4493 27.456 18.4493 26.5165C18.4493 25.5788 19.2109 24.8145 20.1513 24.8145ZM15.3653 14.5808C16.3057 14.5808 17.0672 15.3432 17.0672 16.2836C17.0672 17.2231 16.3057 17.9856 15.3653 17.9856C14.4249 17.9856 13.6633 17.2231 13.6633 16.2836C13.6642 15.3432 14.4249 14.5808 15.3653 14.5808ZM15.3653 20.5228C16.8885 20.5228 18.1242 21.7585 18.1242 23.2808C18.1242 24.804 16.8885 26.0389 15.3653 26.0389C13.8412 26.0389 12.6063 24.804 12.6063 23.2808C12.6063 21.7576 13.8412 20.5228 15.3653 20.5228ZM31.2089 34.6723C30.8549 35.2753 30.2072 35.6311 29.5104 35.6311H7.3225C6.62488 35.6311 5.9781 35.2753 5.62403 34.6723C5.26996 34.0694 5.26032 33.3332 5.59949 32.7215L8.26639 27.9275C8.64675 27.2422 9.39695 26.8495 10.177 26.924C13.7185 27.2615 17.6991 30.2912 21.2565 30.1562C23.1618 30.0835 24.9304 29.3894 26.6148 28.4613C27.5657 27.9354 28.762 28.2798 29.2896 29.2299L31.2343 32.7197C31.5718 33.3323 31.563 34.0702 31.2089 34.6723Z" fill="#FAFAFA"/>
</svg>
