<svg width="40" height="40" viewBox="0 0 40 40" fill="none" xmlns="http://www.w3.org/2000/svg">
<path fill-rule="evenodd" clip-rule="evenodd" d="M10.0225 6.24992C9.73875 6.24492 9.4575 6.33742 9.23125 6.51617C8.9275 6.75242 8.75 7.11492 8.75 7.49992V11.2499H5C4.31 11.2499 3.75 11.8099 3.75 12.4999V29.9999C3.75 30.6099 4.1925 31.1324 4.795 31.2324L19.795 33.7324C19.9312 33.7562 20.0688 33.7562 20.205 33.7324L35.205 31.2324C35.8075 31.1324 36.25 30.6099 36.25 29.9999V12.4999C36.25 11.8099 35.69 11.2499 35 11.2499H31.25V7.49992C31.25 7.11492 31.0725 6.75242 30.7687 6.51617C30.4662 6.27867 30.0712 6.19242 29.6975 6.28617L21.25 8.39867V28.4762L30.3025 26.2137C30.8588 26.0749 31.25 25.5737 31.25 24.9999V13.7499H33.75V28.9399L20 31.2324L6.25 28.9399V13.7499C6.25 13.7512 7.63875 13.7499 8.75 13.7499V24.9999C8.75 25.5737 9.14125 26.0749 9.6975 26.2137L18.75 28.4762V8.39867L10.3025 6.28617C10.2087 6.26367 10.1162 6.25117 10.0225 6.24992Z" fill="#FAFAFA"/>
</svg>
