<svg width="35" height="45" viewBox="0 0 35 45" fill="none" xmlns="http://www.w3.org/2000/svg">
<path d="M17.3263 4.8252C10.4154 4.8252 4.79297 10.4476 4.79297 17.3585C4.79297 24.2695 10.4154 29.8919 17.3263 29.8919C24.2372 29.8919 29.8596 24.2695 29.8596 17.3585C29.8596 10.4476 24.2372 4.8252 17.3263 4.8252ZM27.0143 14.0385C27.0143 14.3201 26.8634 14.5761 26.6239 14.7207V22.1585C26.6239 22.6001 26.2655 22.9585 25.8239 22.9585C25.3823 22.9585 25.0239 22.6001 25.0239 22.1585V15.5767L24.4906 15.8599V20.5585C24.4906 20.7809 24.3983 20.9927 24.2351 21.1441C23.3354 21.9815 20.8463 23.9345 17.1706 23.9857C17.121 23.9863 17.0714 23.9868 17.0228 23.9868C13.2783 23.9868 10.7386 22.0055 9.81217 21.1447C9.65004 20.9927 9.55724 20.7809 9.55724 20.5585V15.8593L7.45804 14.7452C7.1967 14.606 7.03297 14.334 7.03297 14.0385C7.03297 13.7431 7.1967 13.4711 7.45804 13.3319L16.6484 8.454C16.8826 8.33026 17.1642 8.33026 17.3983 8.454L26.5887 13.3319C26.8511 13.4711 27.0143 13.7431 27.0143 14.0385Z" fill="url(#paint0_linear_404_1512)"/>
<path d="M17.0239 19.716C16.8954 19.716 16.7663 19.6845 16.649 19.6227L11.1572 16.708V20.1992C12.0991 21.0024 14.1418 22.3864 17.0228 22.3864C17.065 22.3864 17.1066 22.3859 17.1487 22.3853C19.97 22.3464 21.969 20.9853 22.8906 20.1992V16.708L17.3988 19.6227C17.2815 19.6845 17.1524 19.716 17.0239 19.716Z" fill="url(#paint1_linear_404_1512)"/>
<path d="M9.54028 14.0381L17.024 18.0104L24.5077 14.0381L17.024 10.0664L9.54028 14.0381Z" fill="url(#paint2_linear_404_1512)"/>
<path d="M34.608 16.0463C33.9947 7.46498 27.0453 0.579645 18.4533 0.0356453C13.6107 -0.268355 8.992 1.37964 5.472 4.69164C1.99467 7.95564 0 12.5583 0 17.3263C0 22.921 2.72 28.1956 7.28 31.4383C8.74133 32.4783 9.952 33.8223 10.88 35.433L14.672 41.9983C14.8213 42.2596 15.0133 42.4943 15.2267 42.6916H12.528C12.0853 42.6916 11.728 43.049 11.728 43.4916C11.728 43.9343 12.0853 44.2916 12.528 44.2916H22.128C22.5707 44.2916 22.928 43.9343 22.928 43.4916C22.928 43.049 22.5707 42.6916 22.128 42.6916H19.28C19.4933 42.4943 19.6853 42.2596 19.8347 41.9983L23.5307 35.6036C24.496 33.929 25.712 32.585 27.1307 31.609C32.256 28.089 35.0507 22.2703 34.608 16.0463ZM17.3264 31.4916C9.53333 31.4916 3.19307 25.1514 3.19307 17.3583C3.19307 9.56524 9.53333 3.22498 17.3264 3.22498C25.1195 3.22498 31.4597 9.56524 31.4597 17.3583C31.4597 25.1514 25.12 31.4916 17.3264 31.4916Z" fill="url(#paint3_linear_404_1512)"/>
<defs>
<linearGradient id="paint0_linear_404_1512" x1="17.3263" y1="4.8252" x2="17.3263" y2="29.8919" gradientUnits="userSpaceOnUse">
<stop/>
<stop offset="1" stop-color="#711F45"/>
</linearGradient>
<linearGradient id="paint1_linear_404_1512" x1="17.0239" y1="16.708" x2="17.0239" y2="22.3864" gradientUnits="userSpaceOnUse">
<stop/>
<stop offset="1" stop-color="#711F45"/>
</linearGradient>
<linearGradient id="paint2_linear_404_1512" x1="17.024" y1="10.0664" x2="17.024" y2="18.0104" gradientUnits="userSpaceOnUse">
<stop/>
<stop offset="1" stop-color="#711F45"/>
</linearGradient>
<linearGradient id="paint3_linear_404_1512" x1="17.3268" y1="0" x2="17.3268" y2="44.2916" gradientUnits="userSpaceOnUse">
<stop/>
<stop offset="1" stop-color="#711F45"/>
</linearGradient>
</defs>
</svg>
