<svg width="40" height="40" viewBox="0 0 40 40" fill="none" xmlns="http://www.w3.org/2000/svg">
<g clip-path="url(#clip0_404_1636)">
<path d="M21.6284 3.23108C22.0808 2.63146 22.008 1.35963 21.9436 0.237706C21.9412 0.189347 21.9385 0.142051 21.9358 0.0940187C21.3016 0.0334671 20.6597 0 20.01 0C17.5204 0 15.1383 0.458638 12.9397 1.29008C14.5081 2.04378 16.9358 3.34106 19.6343 5.25784C20.555 4.46552 21.2493 3.73407 21.6284 3.23108Z" fill="#FAFAFA"/>
<path d="M31.762 14.6435C30.7762 14.7549 29.9449 14.9166 29.2339 15.1435C32.6327 21.0778 33.9579 28.575 34.2822 34.0064C37.6493 30.5755 39.7877 25.9375 39.9899 20.8001C37.6698 17.9483 34.5962 14.322 31.762 14.6435Z" fill="#FAFAFA"/>
<path d="M11.5565 9.5208C13.9446 9.02387 16.1882 7.82192 17.9771 6.5532C14.2451 3.98286 11.1324 2.64893 10.5133 2.39502C6.64148 4.48806 3.5432 7.8229 1.74072 11.8636C4.08358 10.9301 6.62094 10.4552 9.11313 9.99245C9.91937 9.84271 10.7528 9.68797 11.5565 9.5208Z" fill="#FAFAFA"/>
<path d="M25.3801 10.1023C25.5933 10.3165 25.8059 10.5345 26.017 10.7564C26.7961 11.5743 27.503 12.4688 28.1512 13.4152C29.0952 13.0588 30.2066 12.806 31.5369 12.6556C34.6714 12.3011 37.4586 14.7841 39.8508 17.5178C39.3379 13.3737 37.5606 9.62299 34.9123 6.66504C33.4667 6.83925 31.8551 7.1344 30.2126 7.62454C29.1351 7.94636 27.4191 8.82076 25.3801 10.1023Z" fill="#FAFAFA"/>
<path d="M22.7485 20.4312C23.5689 17.6527 24.519 15.6499 26.36 14.3498C25.8075 13.5567 25.2129 12.8123 24.5689 12.1361C24.2709 11.8232 23.9696 11.521 23.6671 11.2241C16.2811 16.2515 6.16387 25.4865 5.2439 33.488C8.31485 36.8479 12.5176 39.1522 17.2488 39.8059C18.9715 36.3761 20.5929 29.4038 21.5567 25.257C22.0197 23.2653 22.4194 21.5456 22.7485 20.4312Z" fill="#FAFAFA"/>
<path d="M14.3742 16.0249C16.9495 13.6519 19.6691 11.5239 22.1565 9.81364C21.3274 9.08007 20.4957 8.40385 19.6792 7.78369C17.6132 9.33676 14.9082 10.8664 11.9637 11.4788C11.1392 11.6504 10.2948 11.8073 9.47848 11.9588C6.33324 12.5429 3.314 13.1086 0.774924 14.5252C0.280446 16.2657 0.0100098 18.1008 0.0100098 19.9998C0.0100098 24.248 1.33871 28.1841 3.5972 31.4231C5.06034 25.6301 10.0789 19.983 14.3742 16.0249Z" fill="#FAFAFA"/>
<path d="M23.8793 8.67147C26.2586 7.15457 28.31 6.10571 29.6409 5.70845C30.836 5.35152 32.0084 5.09156 33.1187 4.90196C30.5531 2.6726 27.4171 1.08369 23.9552 0.391113C24.032 1.78789 24.0654 3.3214 23.2252 4.43555C22.8259 4.96464 22.1505 5.69028 21.2717 6.47753C22.1324 7.14745 23.007 7.87799 23.8793 8.67147Z" fill="#FAFAFA"/>
<path d="M24.6665 20.9974C24.3543 22.0553 23.9604 23.7489 23.5047 25.7097C22.1591 31.4993 20.8716 36.6799 19.3679 39.9837C19.5814 39.9904 19.7948 39.9999 20.0099 39.9999C24.671 39.9999 28.9559 38.4011 32.3563 35.7281C32.2221 30.0443 30.8595 22.005 27.4273 16.0371C26.0961 17.0265 25.3796 18.5829 24.6665 20.9974Z" fill="#FAFAFA"/>
</g>
<defs>
<clipPath id="clip0_404_1636">
<rect width="40" height="40" fill="white"/>
</clipPath>
</defs>
</svg>
