<svg width="42" height="42" viewBox="0 0 42 42" fill="none" xmlns="http://www.w3.org/2000/svg">
<g clip-path="url(#clip0_404_1541)">
<path d="M41.9999 28.4237C41.9999 23.2119 39.0099 18.5604 34.5319 16.2979C34.3928 26.2909 26.2909 34.3928 16.2979 34.5319C18.5604 39.0099 23.2119 41.9999 28.4237 41.9999C30.8674 41.9999 33.2437 41.3491 35.3317 40.1125L41.9406 41.9406L40.1125 35.3317C41.3491 33.2437 41.9999 30.8674 41.9999 28.4237Z" fill="url(#paint0_linear_404_1541)"/>
<path d="M32.0742 16.0371C32.0742 7.19408 24.8801 0 16.0371 0C7.19408 0 0 7.19408 0 16.0371C0 18.9191 0.76712 21.7251 2.22382 24.1886L0.05896 32.0149L7.88557 29.8504C10.3491 31.3071 13.1551 32.0742 16.0371 32.0742C24.8801 32.0742 32.0742 24.8801 32.0742 16.0371ZM13.5762 12.3047H11.1152C11.1152 9.59061 13.323 7.38281 16.0371 7.38281C18.7512 7.38281 20.959 9.59061 20.959 12.3047C20.959 13.6822 20.3758 15.0063 19.3584 15.9368L17.2676 17.8504V19.7695H14.8066V16.7667L17.697 14.1212C18.2135 13.6486 18.498 13.0036 18.498 12.3047C18.498 10.9476 17.3941 9.84375 16.0371 9.84375C14.6801 9.84375 13.5762 10.9476 13.5762 12.3047ZM14.8066 22.2305H17.2676V24.6914H14.8066V22.2305Z" fill="url(#paint1_linear_404_1541)"/>
</g>
<defs>
<linearGradient id="paint0_linear_404_1541" x1="29.1489" y1="16.2979" x2="29.1489" y2="41.9999" gradientUnits="userSpaceOnUse">
<stop/>
<stop offset="1" stop-color="#711F45"/>
</linearGradient>
<linearGradient id="paint1_linear_404_1541" x1="16.0371" y1="0" x2="16.0371" y2="32.0742" gradientUnits="userSpaceOnUse">
<stop/>
<stop offset="1" stop-color="#711F45"/>
</linearGradient>
<clipPath id="clip0_404_1541">
<rect width="42" height="42" fill="white"/>
</clipPath>
</defs>
</svg>
