<svg width="40" height="40" viewBox="0 0 40 40" fill="none" xmlns="http://www.w3.org/2000/svg">
<g clip-path="url(#clip0_408_2882)">
<path d="M8.59529 11.3273C10.1053 11.3273 11.3295 10.1032 11.3295 8.59309C11.3295 7.08303 10.1053 5.85889 8.59529 5.85889C7.08523 5.85889 5.86108 7.08303 5.86108 8.59309C5.86108 10.1032 7.08523 11.3273 8.59529 11.3273Z" fill="#FAFAFA"/>
<path d="M14.6715 14.6693C16.2945 13.0463 17.1884 10.8884 17.1884 8.59304C17.1884 3.85485 13.3335 0 8.59523 0C3.85705 0 0.00219727 3.85485 0.00219727 8.59304C0.00219727 10.8884 0.895997 13.0463 2.51908 14.6693L8.59523 20.7454L14.6715 14.6693ZM3.51756 8.59319C3.51756 5.79337 5.79541 3.51552 8.59523 3.51552C11.3951 3.51552 13.6729 5.79337 13.6729 8.59319C13.6729 11.393 11.3951 13.6709 8.59523 13.6709C5.79541 13.6709 3.51756 11.393 3.51756 8.59319Z" fill="#FAFAFA"/>
<path d="M33.7479 24.9121C30.3019 24.9121 27.4983 27.7157 27.4983 31.1617C27.4983 32.831 28.1483 34.4004 29.3286 35.5808L33.7479 39.9999L38.167 35.5808C39.3473 34.4004 39.9974 32.8309 39.9974 31.1617C39.9974 27.7157 37.1939 24.9121 33.7479 24.9121Z" fill="#FAFAFA"/>
<path d="M9.76698 32.4534C9.76698 29.5872 12.0988 27.2554 14.965 27.2554H19.3133C21.888 27.2554 23.9827 25.1607 23.9827 22.5859C23.9827 20.0112 21.888 17.9165 19.3133 17.9165H14.7668V20.26H19.3133C20.5959 20.26 21.6393 21.3034 21.6393 22.5859C21.6393 23.8685 20.5959 24.9119 19.3133 24.9119H14.9651C10.8067 24.9119 7.42358 28.2951 7.42358 32.4535C7.42358 36.6119 10.8066 39.995 14.9651 39.995H28.0459V37.6516H14.9651C12.0988 37.6516 9.76698 35.3197 9.76698 32.4534Z" fill="#FAFAFA"/>
</g>
<defs>
<clipPath id="clip0_408_2882">
<rect width="40" height="40" fill="white"/>
</clipPath>
</defs>
</svg>
