<svg width="45" height="45" viewBox="0 0 45 45" fill="none" xmlns="http://www.w3.org/2000/svg">
<path d="M26.9009 20.2287C33.7935 20.2287 39.5407 25.3798 40.4845 32.0224H20.6001C20.6358 31.7066 20.5755 31.3736 20.3953 31.0643L20.3211 30.937H23.1892C24.5537 30.937 25.6653 29.8255 25.6653 28.4609V20.2846C26.0725 20.2479 26.4846 20.2287 26.9009 20.2287ZM43.4014 33.4286H1.59864C1.15436 33.4286 0.791016 33.792 0.791016 34.2362V35.6521C0.791016 36.0963 1.15444 36.4597 1.59864 36.4597H43.4014C43.8456 36.4597 44.209 36.0963 44.209 35.6521V34.2362C44.209 33.792 43.8456 33.4286 43.4014 33.4286ZM9.33161 30.937L8.84479 31.7724C8.77526 31.8917 8.86931 32.0224 8.9884 32.0224H19.0366C19.1558 32.0224 19.2497 31.8917 19.1802 31.7724L18.6934 30.937H9.33161ZM24.259 15.5822C24.259 14.9937 23.7776 14.5123 23.1892 14.5123H4.83583C4.2474 14.5123 3.76603 14.9937 3.76603 15.5822V25.7247H24.259V15.5822ZM4.83583 29.5308H23.1891C23.7776 29.5308 24.259 29.0495 24.259 28.461V27.131H3.76603V28.461C3.76603 29.0494 4.2474 29.5308 4.83583 29.5308ZM23.1891 13.1062C24.5537 13.1062 25.6652 14.2177 25.6652 15.5822V19.4095C26.0671 19.4769 26.4798 19.5126 26.9009 19.5126C30.9962 19.5126 34.3161 16.1927 34.3161 12.0974C34.3161 8.00202 30.9962 4.68213 26.9009 4.68213C22.8055 4.68213 19.4856 8.00202 19.4856 12.0974C19.4856 12.4396 19.5093 12.7762 19.5542 13.1062H23.1891ZM2.31838 40.3179H42.6816V37.8659H2.31838V40.3179Z" fill="#450101"/>
</svg>
