<svg width="45" height="45" viewBox="0 0 45 45" fill="none" xmlns="http://www.w3.org/2000/svg">
<path fill-rule="evenodd" clip-rule="evenodd" d="M34.6875 21.5625V11.25H37.5V21.5625C37.5 22.3391 36.8704 22.9688 36.0938 22.9688C35.3171 22.9688 34.6875 22.3391 34.6875 21.5625Z" fill="#450101"/>
<path d="M30 18.75V13.125H15V18.75C15 22.8921 18.3579 26.25 22.5 26.25C26.6421 26.25 30 22.8921 30 18.75Z" fill="#450101"/>
<path d="M7.55284 10.3933L20.2157 4.76532C21.6701 4.11892 23.3304 4.11892 24.7849 4.76532L37.4477 10.3933C38.19 10.7232 38.19 11.7768 37.4477 12.1067L24.7849 17.7346C23.3304 18.381 21.6701 18.381 20.2157 17.7346L7.55284 12.1067C6.81051 11.7768 6.81051 10.7232 7.55284 10.3933Z" fill="#450101"/>
<path d="M26.8117 28.8743L23.8331 31.8861C23.0993 32.6282 21.9007 32.6282 21.1669 31.8861L18.1883 28.8743C17.7282 28.4091 17.0565 28.2107 16.4288 28.3954C11.1691 29.9421 7.5 33.4367 7.5 37.5002C7.5 39.5712 9.17893 41.2502 11.25 41.2502H33.75C35.8211 41.2502 37.5 39.5712 37.5 37.5002C37.5 33.4367 33.8308 29.9421 28.5712 28.3954C27.9435 28.2107 27.2717 28.4091 26.8117 28.8743Z" fill="#450101"/>
</svg>
