<svg width="40" height="40" viewBox="0 0 40 40" fill="none" xmlns="http://www.w3.org/2000/svg">
<path d="M32.3438 8.4374H38.5453L30.9375 0.82959V7.03115C30.9375 7.40411 31.0857 7.7618 31.3494 8.02552C31.6131 8.28924 31.9708 8.4374 32.3438 8.4374Z" fill="#450101"/>
<path d="M32.3438 11.25C31.2249 11.25 30.1518 10.8055 29.3606 10.0144C28.5695 9.22319 28.125 8.15013 28.125 7.03125V0H12.6562C11.5374 0 10.4643 0.444474 9.67314 1.23564C8.88197 2.02681 8.4375 3.09987 8.4375 4.21875V8.4375C10.5968 8.44259 12.7091 9.06903 14.5221 10.242C16.3351 11.415 17.7722 13.085 18.6618 15.0526C19.5515 17.0201 19.856 19.2022 19.5392 21.3382C19.2224 23.4742 18.2975 25.4738 16.875 27.0984V37.9688C16.8768 38.449 16.791 38.9255 16.6219 39.375H35.1562C36.2751 39.375 37.3482 38.9305 38.1394 38.1394C38.9305 37.3482 39.375 36.2751 39.375 35.1562V11.25H32.3438ZM18.2812 9.84375C18.2812 9.47079 18.4294 9.1131 18.6931 8.84938C18.9569 8.58566 19.3145 8.4375 19.6875 8.4375H23.9062C24.2792 8.4375 24.6369 8.58566 24.9006 8.84938C25.1643 9.1131 25.3125 9.47079 25.3125 9.84375C25.3125 10.2167 25.1643 10.5744 24.9006 10.8381C24.6369 11.1018 24.2792 11.25 23.9062 11.25H19.6875C19.3145 11.25 18.9569 11.1018 18.6931 10.8381C18.4294 10.5744 18.2812 10.2167 18.2812 9.84375ZM32.3438 32.3438H21.0938C20.7208 32.3438 20.3631 32.1956 20.0994 31.9319C19.8357 31.6681 19.6875 31.3105 19.6875 30.9375C19.6875 30.5645 19.8357 30.2069 20.0994 29.9431C20.3631 29.6794 20.7208 29.5312 21.0938 29.5312H32.3438C32.7167 29.5312 33.0744 29.6794 33.3381 29.9431C33.6018 30.2069 33.75 30.5645 33.75 30.9375C33.75 31.3105 33.6018 31.6681 33.3381 31.9319C33.0744 32.1956 32.7167 32.3438 32.3438 32.3438ZM32.3438 25.3125H23.9062C23.5333 25.3125 23.1756 25.1643 22.9119 24.9006C22.6482 24.6369 22.5 24.2792 22.5 23.9062C22.5 23.5333 22.6482 23.1756 22.9119 22.9119C23.1756 22.6482 23.5333 22.5 23.9062 22.5H32.3438C32.7167 22.5 33.0744 22.6482 33.3381 22.9119C33.6018 23.1756 33.75 23.5333 33.75 23.9062C33.75 24.2792 33.6018 24.6369 33.3381 24.9006C33.0744 25.1643 32.7167 25.3125 32.3438 25.3125ZM32.3438 18.2812H23.9062C23.5333 18.2812 23.1756 18.1331 22.9119 17.8694C22.6482 17.6056 22.5 17.248 22.5 16.875C22.5 16.502 22.6482 16.1444 22.9119 15.8806C23.1756 15.6169 23.5333 15.4688 23.9062 15.4688H32.3438C32.7167 15.4688 33.0744 15.6169 33.3381 15.8806C33.6018 16.1444 33.75 16.502 33.75 16.875C33.75 17.248 33.6018 17.6056 33.3381 17.8694C33.0744 18.1331 32.7167 18.2812 32.3438 18.2812Z" fill="#450101"/>
<path d="M2.8125 29.4187V37.9687C2.81389 38.2463 2.89742 38.5173 3.05258 38.7476C3.20773 38.9778 3.42757 39.157 3.68437 39.2625C3.94047 39.3701 4.22272 39.3996 4.49552 39.347C4.76832 39.2944 5.01944 39.1623 5.21719 38.9671L8.4375 35.7328L11.6578 38.9671C11.7892 39.0975 11.945 39.2006 12.1164 39.2706C12.2877 39.3405 12.4712 39.376 12.6562 39.375C12.8407 39.3797 13.0237 39.3412 13.1906 39.2625C13.4474 39.157 13.6673 38.9778 13.8224 38.7476C13.9776 38.5173 14.0611 38.2463 14.0625 37.9687V29.4187C12.3546 30.413 10.4137 30.9369 8.4375 30.9369C6.46127 30.9369 4.52036 30.413 2.8125 29.4187Z" fill="#450101"/>
<path d="M8.4375 28.125C13.0974 28.125 16.875 24.3474 16.875 19.6875C16.875 15.0276 13.0974 11.25 8.4375 11.25C3.7776 11.25 0 15.0276 0 19.6875C0 24.3474 3.7776 28.125 8.4375 28.125Z" fill="#450101"/>
</svg>
