<svg width="43" height="42" viewBox="0 0 43 42" fill="none" xmlns="http://www.w3.org/2000/svg">
<path fill-rule="evenodd" clip-rule="evenodd" d="M41.4558 39.0032H1.4984C0.671284 39.0032 0 39.6765 0 40.5016C0 41.3287 0.671284 42 1.4984 42H41.4558C42.2829 42 42.9542 41.3287 42.9542 40.5016C42.9542 39.6765 42.2829 39.0032 41.4558 39.0032Z" fill="#450101"/>
<path fill-rule="evenodd" clip-rule="evenodd" d="M26.9716 40.5016V3.49509C26.9716 2.33632 26.3962 1.25148 25.4352 0.600176C24.4742 -0.0491308 23.2535 -0.18099 22.1767 0.250549L6.19375 6.64373C4.86716 7.17316 3.99609 8.45979 3.99609 9.89026V40.5016C3.99609 41.3307 4.66738 42 5.49449 42H25.4732C26.3003 42 26.9716 41.3307 26.9716 40.5016ZM11.4881 36.0064H19.4796C20.3067 36.0064 20.978 35.3351 20.978 34.508C20.978 33.6829 20.3067 33.0096 19.4796 33.0096H11.4881C10.661 33.0096 9.9897 33.6829 9.9897 34.508C9.9897 35.3351 10.661 36.0064 11.4881 36.0064ZM11.4881 29.0139H19.4796C20.3067 29.0139 20.978 28.3426 20.978 27.5155C20.978 26.6903 20.3067 26.0171 19.4796 26.0171H11.4881C10.661 26.0171 9.9897 26.6903 9.9897 27.5155C9.9897 28.3426 10.661 29.0139 11.4881 29.0139ZM11.4881 22.0213H19.4796C20.3067 22.0213 20.978 21.35 20.978 20.5229C20.978 19.6978 20.3067 19.0245 19.4796 19.0245H11.4881C10.661 19.0245 9.9897 19.6978 9.9897 20.5229C9.9897 21.35 10.661 22.0213 11.4881 22.0213ZM11.4881 15.0288H19.4796C20.3067 15.0288 20.978 14.3575 20.978 13.5304C20.978 12.7053 20.3067 12.032 19.4796 12.032H11.4881C10.661 12.032 9.9897 12.7053 9.9897 13.5304C9.9897 14.3575 10.661 15.0288 11.4881 15.0288Z" fill="#450101"/>
<path fill-rule="evenodd" clip-rule="evenodd" d="M28.9694 11.033V40.5015C28.9694 41.0389 28.8496 41.5464 28.6338 41.9999H37.4604C38.2875 41.9999 38.9588 41.3306 38.9588 40.5015V14.5292C38.9588 12.5993 37.3924 11.033 35.4625 11.033H28.9694Z" fill="#450101"/>
</svg>
