<svg width="45" height="45" viewBox="0 0 45 45" fill="none" xmlns="http://www.w3.org/2000/svg">
<path d="M11.2669 12.1875C11.2669 10.7041 11.7067 9.2541 12.5309 8.02073C13.355 6.78736 14.5263 5.82606 15.8968 5.25841C17.2672 4.69075 18.7752 4.54222 20.2301 4.83161C21.6849 5.121 23.0213 5.83531 24.0702 6.8842C25.1191 7.9331 25.8334 9.26947 26.1228 10.7243C26.4122 12.1792 26.2636 13.6872 25.696 15.0576C25.1283 16.4281 24.167 17.5994 22.9337 18.4235C21.7003 19.2476 20.2502 19.6875 18.7669 19.6875C16.7778 19.6875 14.8701 18.8973 13.4636 17.4908C12.0571 16.0843 11.2669 14.1766 11.2669 12.1875ZM30.1069 26.5875C30.0824 26.4143 29.9982 26.2551 29.8688 26.1375C28.8846 25.2158 27.725 24.5018 26.459 24.0379C25.193 23.574 23.8466 23.3698 22.5 23.4375H15C7.3875 23.4375 4.6875 29.0063 4.6875 33.7875C4.6875 38.0625 6.95625 40.3125 11.25 40.3125H21C21.0739 40.3146 21.1475 40.3006 21.2155 40.2715C21.2834 40.2423 21.3443 40.1988 21.3937 40.1438C21.4981 40.035 21.5582 39.8913 21.5625 39.7406V36.5625C21.5632 35.8168 21.8599 35.1019 22.3875 34.575L29.9438 26.9813C30.0462 26.8755 30.1045 26.7347 30.1069 26.5875ZM24.375 36.5625V41.25H29.0625L37.5731 32.7769L32.85 28.0538L24.375 36.5625ZM40.7025 27.0206L38.6025 24.9206C38.2512 24.5714 37.776 24.3754 37.2806 24.3754C36.7853 24.3754 36.3101 24.5714 35.9587 24.9206L34.1606 26.7394L38.8838 31.4625L40.7025 29.6644C41.0512 29.3132 41.2468 28.8383 41.2468 28.3434C41.2468 27.8486 41.0512 27.3719 40.7025 27.0206Z" fill="#450101"/>
</svg>
