<svg width="42" height="42" viewBox="0 0 42 42" fill="none" xmlns="http://www.w3.org/2000/svg">
<path d="M38.3381 15.5399C37.5723 15.4286 36.8414 15.1461 36.1999 14.7132C35.5584 14.2803 35.0228 13.7083 34.633 13.0397C34.2432 12.3711 34.0092 11.6232 33.9486 10.8517C33.8879 10.0802 34.002 9.30493 34.2825 8.58364C34.4608 8.1121 34.4871 7.59657 34.3576 7.10935C34.2282 6.62212 33.9495 6.18762 33.5606 5.86677C31.8439 4.4252 29.8899 3.29275 27.7857 2.51989C27.3065 2.3419 26.7834 2.31966 26.2908 2.45634C25.7983 2.59303 25.3614 2.88167 25.0425 3.28114C24.5625 3.89494 23.949 4.39137 23.2486 4.73278C22.5482 5.0742 21.7792 5.25164 21 5.25164C20.2208 5.25164 19.4519 5.0742 18.7514 4.73278C18.051 4.39137 17.4375 3.89494 16.9575 3.28114C16.6386 2.88167 16.2018 2.59303 15.7092 2.45634C15.2167 2.31966 14.6936 2.3419 14.2144 2.51989C12.2715 3.23342 10.4549 4.25249 8.83315 5.53864C8.42437 5.86226 8.12992 6.30825 7.99294 6.81131C7.85596 7.31437 7.88363 7.84807 8.0719 8.33427C8.37477 9.07464 8.4999 9.87568 8.43727 10.6731C8.37463 11.4706 8.12597 12.2423 7.71123 12.9263C7.29649 13.6103 6.72721 14.1876 6.04907 14.6118C5.37092 15.0361 4.60279 15.2955 3.80628 15.3693C3.28916 15.4246 2.80346 15.6444 2.42069 15.9965C2.03791 16.3485 1.77828 16.8142 1.68003 17.3249C1.43564 18.5346 1.31253 19.7657 1.31253 20.9999C1.31073 22.0331 1.39414 23.0647 1.5619 24.0843C1.6454 24.6113 1.9002 25.0962 2.2869 25.4639C2.67361 25.8317 3.17069 26.0618 3.70128 26.1186C4.51528 26.195 5.29915 26.4653 5.98727 26.9068C6.67538 27.3483 7.24773 27.9482 7.65641 28.6564C8.06508 29.3645 8.29819 30.1602 8.33623 30.9769C8.37426 31.7936 8.21612 32.6075 7.87503 33.3505C7.65181 33.8338 7.59644 34.3779 7.71771 34.8962C7.83898 35.4146 8.12994 35.8776 8.5444 36.2118C10.2508 37.6272 12.186 38.7412 14.2669 39.5061C14.533 39.5983 14.8122 39.6471 15.0938 39.6505C15.4799 39.6497 15.8601 39.5563 16.2027 39.3782C16.5453 39.2 16.8401 38.9424 17.0625 38.6268C17.5303 37.9452 18.1574 37.3881 18.8893 37.0039C19.6212 36.6196 20.4359 36.4198 21.2625 36.4218C22.0635 36.4228 22.8531 36.6108 23.5686 36.9708C24.2841 37.3308 24.9057 37.8529 25.3838 38.4955C25.7018 38.923 26.1523 39.2333 26.6651 39.3782C27.1778 39.523 27.7241 39.4941 28.2188 39.2961C30.1215 38.5304 31.8929 37.472 33.4688 36.1593C33.8646 35.832 34.1465 35.3876 34.2739 34.8899C34.4012 34.3923 34.3675 33.8671 34.1775 33.3899C33.8688 32.6591 33.7342 31.8665 33.7843 31.0747C33.8345 30.283 34.0679 29.5137 34.4663 28.8276C34.8647 28.1416 35.4172 27.5575 36.08 27.1215C36.7428 26.6856 37.4979 26.4096 38.2856 26.3155C38.7965 26.2449 39.2715 26.0135 39.642 25.6548C40.0125 25.2961 40.2592 24.8288 40.3463 24.3205C40.5571 23.2258 40.6713 22.1146 40.6875 20.9999C40.6878 19.8241 40.5779 18.6508 40.3594 17.4955C40.2708 16.9985 40.0278 16.542 39.6649 16.1909C39.3021 15.8399 38.8378 15.6121 38.3381 15.5399ZM27.5625 20.9999C27.5625 22.2978 27.1776 23.5666 26.4565 24.6458C25.7354 25.725 24.7105 26.5662 23.5114 27.0629C22.3122 27.5596 20.9927 27.6895 19.7197 27.4363C18.4467 27.1831 17.2774 26.5581 16.3596 25.6403C15.4419 24.7225 14.8168 23.5532 14.5636 22.2802C14.3104 21.0072 14.4404 19.6877 14.9371 18.4885C15.4338 17.2894 16.2749 16.2645 17.3541 15.5434C18.4333 14.8223 19.7021 14.4374 21 14.4374C22.7405 14.4374 24.4097 15.1288 25.6404 16.3595C26.8711 17.5902 27.5625 19.2594 27.5625 20.9999Z" fill="#450101"/>
</svg>
