<svg width="48" height="48" viewBox="0 0 48 48" fill="none" xmlns="http://www.w3.org/2000/svg">
<path fill-rule="evenodd" clip-rule="evenodd" d="M26.8429 2.73201L29.7009 4.87139C30.4826 5.45648 31.3054 5.75592 32.2803 5.8102L35.8447 6.00848C37.9792 6.12717 39.7127 7.5817 40.2002 9.66314L41.0145 13.1391C41.2372 14.0897 41.675 14.848 42.3869 15.5161L44.9901 17.9594C46.5487 19.4222 46.9417 21.6508 45.9773 23.5586L44.3668 26.7447C43.9264 27.6161 43.7743 28.4783 43.8902 29.4478L44.3139 32.9926C44.5676 35.1152 43.4362 37.0749 41.4712 37.9165L38.1893 39.322C37.2918 39.7064 36.6211 40.2691 36.0867 41.0863L34.1327 44.0741C32.9627 45.8631 30.8362 46.637 28.7901 46.0186L25.3727 44.9859C24.4381 44.7034 23.5626 44.7034 22.6279 44.9859L19.2105 46.0186C17.1643 46.637 15.0379 45.8631 13.8679 44.0741L11.9138 41.0863C11.3794 40.2691 10.7087 39.7064 9.81122 39.322L6.52922 37.9163C4.56422 37.0747 3.43275 35.115 3.68644 32.9925L4.11019 29.4476C4.22606 28.4781 4.074 27.6159 3.63356 26.7445L2.02303 23.5584C1.05872 21.6507 1.45162 19.4221 3.01031 17.9592L5.61347 15.516C6.3254 14.8478 6.76312 14.0895 6.98578 13.1389L7.80009 9.66295C8.28759 7.58161 10.0211 6.12708 12.1555 6.00829L15.72 5.81001C16.6949 5.75583 17.5177 5.4563 18.2993 4.8712L21.1574 2.73183C22.8686 1.45101 25.1316 1.45101 26.8429 2.73201ZM22.1769 25.2244L19.0753 22.1228C18.2714 21.3189 16.9674 21.3189 16.1636 22.1228C15.3597 22.9267 15.3597 24.2306 16.1636 25.0345L20.7256 29.5964C21.5295 30.4002 22.8335 30.4003 23.6373 29.5964C26.387 26.8466 29.1055 24.066 31.8426 21.3036C32.6407 20.4981 32.6381 19.1984 31.8337 18.3984C31.0291 17.5982 29.7256 17.6005 28.9267 18.4074L22.1769 25.2244ZM24.0001 8.66761C19.7662 8.66761 15.9331 10.3838 13.1585 13.1584C10.3838 15.9331 8.66765 19.7662 8.66765 24C8.66765 28.2339 10.3838 32.067 13.1585 34.8417C15.9331 37.6163 19.7662 39.3325 24.0001 39.3325C28.2339 39.3325 32.0671 37.6163 34.8417 34.8417C37.6163 32.067 39.3325 28.2339 39.3325 24C39.3325 19.7662 37.6163 15.933 34.8417 13.1584C32.0671 10.3838 28.2339 8.66761 24.0001 8.66761ZM33.7811 14.219C31.278 11.7159 27.8198 10.1676 24.0001 10.1676C20.1803 10.1676 16.7222 11.7159 14.2191 14.219C11.7159 16.7221 10.1677 20.1803 10.1677 24C10.1677 27.8198 11.7159 31.278 14.2191 33.7811C16.7222 36.2842 20.1803 37.8325 24.0001 37.8325C27.8198 37.8325 31.278 36.2842 33.7811 33.7812C36.2842 31.278 37.8324 27.8199 37.8324 24.0001C37.8325 20.1803 36.2842 16.7221 33.7811 14.219Z" fill="#450101"/>
</svg>
