<svg width="45" height="45" viewBox="0 0 45 45" fill="none" xmlns="http://www.w3.org/2000/svg">
<g clip-path="url(#clip0_508_1458)">
<path d="M15.5453 19.3104V35.8696C15.5453 36.6059 15.081 37.2608 14.388 37.5034C13.4074 37.8481 12.2241 38.03 10.9646 38.03C7.34194 38.03 3.44554 36.5436 3.44554 33.2795V12.091C3.36412 10.6357 3.87174 8.06469 6.30937 6.67349C7.44069 6.02727 13.3814 2.2071 16.3648 0.277096C16.8967 -0.0676716 17.5758 -0.0919266 18.1337 0.209529C18.6916 0.514449 19.0381 1.0983 19.0381 1.7324V4.24106C19.0381 5.1974 18.2619 5.97356 17.3056 5.97356C16.5606 5.97356 15.9248 5.50405 15.6805 4.84224C12.9847 6.57474 9.0138 9.11805 8.02801 9.68112C7.14097 10.1887 6.94866 11.1208 6.91055 11.6267C6.91055 12.195 7.03356 12.642 7.25532 12.8862C7.87035 13.5567 9.9199 13.1392 12.1566 11.7965C14.3049 10.5075 24.9008 3.45277 25.0065 3.38174C25.5419 3.02658 26.2245 2.99366 26.7841 3.29685C27.3489 3.5983 27.7006 4.18562 27.7006 4.82491V5.02242C27.7006 5.60107 27.4112 6.14161 26.9313 6.46386C26.9313 6.46386 19.5751 11.3738 18.9237 11.7913C16.4306 13.3956 15.5453 15.3637 15.5453 19.3104ZM41.5606 10.9493V33.4406C41.5606 34.0349 41.2539 34.5893 40.7498 34.9063C40.7498 34.9063 30.6493 42.7511 28.5997 43.9968C27.5221 44.6534 26.15 44.9999 24.634 44.9999C21.0322 44.9999 17.3056 43.0508 17.3056 39.792V18.801V18.2934C17.3056 18.2865 17.3108 18.2795 17.3108 18.2709C17.3454 17.0027 17.6417 15.1922 19.9996 13.4528C21.4133 12.4098 29.8333 6.66829 30.1902 6.42574C30.7221 6.06538 31.4099 6.02727 31.9747 6.32526C32.5429 6.62498 32.8981 7.21403 32.8981 7.85679V10.3655C32.8981 11.3218 32.1236 12.098 31.1656 12.098C30.4501 12.098 29.835 11.6648 29.5717 11.0446C26.8846 12.8828 22.9397 15.5907 22.0561 16.2404C20.9403 17.065 20.7914 17.609 20.7723 18.3072C20.7758 18.8253 20.9161 19.2203 21.2002 19.4801C22.0838 20.2892 24.4625 19.9497 26.8083 18.5429C28.5443 17.4999 36.0252 11.7237 38.7591 9.58583C39.2841 9.18042 39.9909 9.10592 40.5869 9.39525C41.1829 9.68458 41.5606 10.2858 41.5606 10.9493ZM38.0956 18.6693L29.4331 25.3897V28.8547L38.0956 22.1343V18.6693Z" fill="#450101"/>
</g>
<defs>
<clipPath id="clip0_508_1458">
<rect width="45" height="45" fill="white"/>
</clipPath>
</defs>
</svg>
