<svg width="45" height="45" viewBox="0 0 45 45" fill="none" xmlns="http://www.w3.org/2000/svg">
<path d="M41.2504 11.25V31.875C41.2504 32.8696 40.8553 33.8234 40.152 34.5266C39.4488 35.2299 38.495 35.625 37.5004 35.625C34.3691 35.625 28.2379 35.625 25.5566 37.5H41.2504C41.7477 37.5 42.2246 37.3025 42.5762 36.9508C42.9278 36.5992 43.1254 36.1223 43.1254 35.625V13.125C43.1254 12.6277 42.9278 12.1508 42.5762 11.7992C42.2246 11.4475 41.7477 11.25 41.2504 11.25Z" fill="#450101"/>
<path d="M3.75 31.875V11.25C3.25272 11.25 2.77581 11.4475 2.42417 11.7992C2.07254 12.1508 1.875 12.6277 1.875 13.125V35.625C1.875 36.1223 2.07254 36.5992 2.42417 36.9508C2.77581 37.3025 3.25272 37.5 3.75 37.5H19.4438C16.7813 35.625 10.6313 35.625 7.5 35.625C6.50544 35.625 5.55161 35.2299 4.84835 34.5266C4.14509 33.8234 3.75 32.8696 3.75 31.875Z" fill="#450101"/>
<path d="M7.5 7.5C7.00272 7.5 6.52581 7.69754 6.17417 8.04918C5.82254 8.40081 5.625 8.87772 5.625 9.375V31.875C5.625 32.3723 5.82254 32.8492 6.17417 33.2008C6.52581 33.5525 7.00272 33.75 7.5 33.75C13.0406 33.75 19.1156 34.0312 21.5625 36.9094V10.05C18.2156 7.75313 12.6375 7.5 7.5 7.5Z" fill="#450101"/>
<path d="M39.375 31.875V9.375C39.375 8.87772 39.1775 8.40081 38.8258 8.04918C38.4742 7.69754 37.9973 7.5 37.5 7.5C32.3625 7.5 26.7844 7.75313 23.4375 10.05V36.9094C25.8844 34.0312 31.9594 33.75 37.5 33.75C37.9973 33.75 38.4742 33.5525 38.8258 33.2008C39.1775 32.8492 39.375 32.3723 39.375 31.875Z" fill="#450101"/>
</svg>
