<svg width="45" height="45" viewBox="0 0 45 45" fill="none" xmlns="http://www.w3.org/2000/svg">
<path d="M22.5 0C18.1381 0 14.5898 3.63612 14.5898 7.99805C14.5898 12.36 18.1381 15.9082 22.5 15.9082C26.8619 15.9082 30.4102 12.36 30.4102 7.99805C30.4102 3.63612 26.8619 0 22.5 0Z" fill="#450101"/>
<path d="M22.5 34.3652C21.7726 34.3652 21.1816 34.9562 21.1816 35.6836C21.1816 36.411 21.7726 37.002 22.5 37.002C23.2274 37.002 23.8184 36.411 23.8184 35.6836C23.8184 34.9562 23.2274 34.3652 22.5 34.3652Z" fill="#450101"/>
<path d="M40.9042 27.8185C40.1523 26.9521 39.0644 26.4551 37.9173 26.4551H7.08262C5.93547 26.4551 4.84756 26.952 4.09575 27.8185C3.34393 28.685 3.00529 29.8334 3.16745 30.9702L5.37412 43.8683C5.46684 44.5172 6.02301 45 6.67964 45H38.3203C38.9769 45 39.5331 44.5172 39.6258 43.8683L41.8325 30.9702C41.9947 29.8333 41.6561 28.685 40.9042 27.8185ZM22.5 39.6387C20.319 39.6387 18.5449 37.8645 18.5449 35.6836C18.5449 33.5027 20.319 31.7285 22.5 31.7285C24.6809 31.7285 26.455 33.5027 26.455 35.6836C26.455 37.8645 24.6809 39.6387 22.5 39.6387Z" fill="#450101"/>
<path d="M29.2374 16.0437C27.4043 17.5813 25.0737 18.5449 22.4996 18.5449C19.9254 18.5449 17.5948 17.5813 15.7618 16.0437C11.8086 16.6828 8.70769 19.8394 8.13086 23.8183H36.8683C36.2915 19.8394 33.1905 16.6828 29.2374 16.0437Z" fill="#450101"/>
</svg>
