<svg width="45" height="45" viewBox="0 0 45 45" fill="none" xmlns="http://www.w3.org/2000/svg">
<path d="M40.3125 10.3125H37.5V36.5625C37.5 37.3084 37.7963 38.0238 38.3238 38.5512C38.8512 39.0787 39.5666 39.375 40.3125 39.375C41.0584 39.375 41.7738 39.0787 42.3012 38.5512C42.8287 38.0238 43.125 37.3084 43.125 36.5625V13.125C43.125 12.3791 42.8287 11.6637 42.3012 11.1363C41.7738 10.6088 41.0584 10.3125 40.3125 10.3125Z" fill="#450101"/>
<path d="M7.5 14.0625H15.9375V21.5625H7.5V14.0625Z" fill="#450101"/>
<path d="M35.625 36.5625V9.375C35.625 8.38044 35.2299 7.42661 34.5266 6.72335C33.8234 6.02009 32.8696 5.625 31.875 5.625H5.625C4.63044 5.625 3.67661 6.02009 2.97335 6.72335C2.27009 7.42661 1.875 8.38044 1.875 9.375V36.5625C1.875 37.3084 2.17132 38.0238 2.69876 38.5512C3.22621 39.0787 3.94158 39.375 4.6875 39.375H36.5869C35.9664 38.5684 35.6284 37.5801 35.625 36.5625ZM5.625 14.0625C5.625 13.5652 5.82254 13.0883 6.17417 12.7367C6.52581 12.385 7.00272 12.1875 7.5 12.1875H15.9375C16.4348 12.1875 16.9117 12.385 17.2633 12.7367C17.615 13.0883 17.8125 13.5652 17.8125 14.0625V21.5625C17.8125 22.0598 17.615 22.5367 17.2633 22.8883C16.9117 23.24 16.4348 23.4375 15.9375 23.4375H7.5C7.00272 23.4375 6.52581 23.24 6.17417 22.8883C5.82254 22.5367 5.625 22.0598 5.625 21.5625V14.0625ZM30.9375 32.8125H6.5625C6.31386 32.8125 6.0754 32.7137 5.89959 32.5379C5.72377 32.3621 5.625 32.1236 5.625 31.875C5.625 31.6264 5.72377 31.3879 5.89959 31.2121C6.0754 31.0363 6.31386 30.9375 6.5625 30.9375H30.9375C31.1861 30.9375 31.4246 31.0363 31.6004 31.2121C31.7762 31.3879 31.875 31.6264 31.875 31.875C31.875 32.1236 31.7762 32.3621 31.6004 32.5379C31.4246 32.7137 31.1861 32.8125 30.9375 32.8125ZM30.9375 28.125H6.5625C6.31386 28.125 6.0754 28.0262 5.89959 27.8504C5.72377 27.6746 5.625 27.4361 5.625 27.1875C5.625 26.9389 5.72377 26.7004 5.89959 26.5246C6.0754 26.3488 6.31386 26.25 6.5625 26.25H30.9375C31.1861 26.25 31.4246 26.3488 31.6004 26.5246C31.7762 26.7004 31.875 26.9389 31.875 27.1875C31.875 27.4361 31.7762 27.6746 31.6004 27.8504C31.4246 28.0262 31.1861 28.125 30.9375 28.125ZM30.9375 23.4375H21.5625C21.3139 23.4375 21.0754 23.3387 20.8996 23.1629C20.7238 22.9871 20.625 22.7486 20.625 22.5C20.625 22.2514 20.7238 22.0129 20.8996 21.8371C21.0754 21.6613 21.3139 21.5625 21.5625 21.5625H30.9375C31.1861 21.5625 31.4246 21.6613 31.6004 21.8371C31.7762 22.0129 31.875 22.2514 31.875 22.5C31.875 22.7486 31.7762 22.9871 31.6004 23.1629C31.4246 23.3387 31.1861 23.4375 30.9375 23.4375ZM30.9375 18.75H21.5625C21.3139 18.75 21.0754 18.6512 20.8996 18.4754C20.7238 18.2996 20.625 18.0611 20.625 17.8125C20.625 17.5639 20.7238 17.3254 20.8996 17.1496C21.0754 16.9738 21.3139 16.875 21.5625 16.875H30.9375C31.1861 16.875 31.4246 16.9738 31.6004 17.1496C31.7762 17.3254 31.875 17.5639 31.875 17.8125C31.875 18.0611 31.7762 18.2996 31.6004 18.4754C31.4246 18.6512 31.1861 18.75 30.9375 18.75ZM30.9375 14.0625H21.5625C21.3139 14.0625 21.0754 13.9637 20.8996 13.7879C20.7238 13.6121 20.625 13.3736 20.625 13.125C20.625 12.8764 20.7238 12.6379 20.8996 12.4621C21.0754 12.2863 21.3139 12.1875 21.5625 12.1875H30.9375C31.1861 12.1875 31.4246 12.2863 31.6004 12.4621C31.7762 12.6379 31.875 12.8764 31.875 13.125C31.875 13.3736 31.7762 13.6121 31.6004 13.7879C31.4246 13.9637 31.1861 14.0625 30.9375 14.0625Z" fill="#450101"/>
</svg>
