<svg width="50" height="50" viewBox="0 0 50 50" fill="none" xmlns="http://www.w3.org/2000/svg">
<path d="M5.65137 36.0352C5.65137 37.4324 6.20589 38.7725 7.19316 39.7613C8.18043 40.75 9.51974 41.3065 10.917 41.3086H43.457V43.249H10.917C9.00583 43.249 7.17294 42.4898 5.82154 41.1384C4.47014 39.787 3.71094 37.9541 3.71094 36.043C3.71094 34.1318 4.47014 32.2989 5.82154 30.9475C7.17294 29.5961 9.00583 28.8369 10.917 28.8369H43.457V30.7783H10.917C9.52261 30.7804 8.18581 31.3346 7.19901 32.3198C6.21221 33.3049 5.65576 34.6408 5.65137 36.0352Z" fill="#450101"/>
<path d="M16.0292 36.0352C16.0292 36.2165 16.1012 36.3903 16.2294 36.5185C16.3576 36.6467 16.5315 36.7187 16.7128 36.7187H43.457V39.9414H10.9169C10.3998 39.9496 9.88631 39.8548 9.40622 39.6626C8.92612 39.4704 8.48907 39.1846 8.12051 38.8218C7.75196 38.459 7.45926 38.0266 7.25947 37.5496C7.05968 37.0726 6.95679 36.5606 6.95679 36.0435C6.95679 35.5263 7.05968 35.0143 7.25947 34.5374C7.45926 34.0604 7.75196 33.6279 8.12051 33.2651C8.48907 32.9023 8.92612 32.6165 9.40622 32.4243C9.88631 32.2321 10.3998 32.1373 10.9169 32.1455H43.457V35.3516H16.7128C16.5315 35.3516 16.3576 35.4236 16.2294 35.5518C16.1012 35.68 16.0292 35.8539 16.0292 36.0352Z" fill="#450101"/>
<path d="M44.1279 12.4648L39.8623 13.7471L39.8437 13.7529L25.2363 18.1475L10.6289 13.7529L10.6104 13.7471L6.34766 12.4648L25.2363 6.78516L44.1279 12.4648Z" fill="#450101"/>
<path d="M46.2891 19.375C46.2893 19.6597 46.205 19.9381 46.0469 20.175C45.8889 20.4118 45.6642 20.5965 45.4011 20.7056C45.1381 20.8147 44.8487 20.8433 44.5694 20.7879C44.2901 20.7325 44.0335 20.5954 43.8321 20.3942C43.6307 20.1929 43.4935 19.9364 43.4379 19.6572C43.3823 19.3779 43.4107 19.0884 43.5196 18.8253C43.6286 18.5623 43.8131 18.3374 44.0498 18.1792C44.2865 18.021 44.5649 17.9365 44.8496 17.9365C45.2311 17.9368 45.597 18.0884 45.8668 18.3581C46.1367 18.6278 46.2885 18.9935 46.2891 19.375Z" fill="#450101"/>
<path d="M45.5332 13.4697V16.6543C45.0845 16.541 44.6147 16.541 44.166 16.6543V13.8809L45.5332 13.4697Z" fill="#450101"/>
<path d="M39.3711 15.3223V27.4658H11.1016V15.3223L25.0391 19.5127C25.1025 19.5315 25.1682 19.5411 25.2344 19.541C25.3005 19.5413 25.3663 19.5318 25.4297 19.5127L39.3711 15.3223Z" fill="#450101"/>
<path d="M46.1328 24.8555H43.5674L43.998 22.0488C44.2732 22.1374 44.5606 22.1822 44.8496 22.1816C45.1389 22.182 45.4265 22.1375 45.7021 22.0498L46.1328 24.8555Z" fill="#450101"/>
</svg>
