<svg width="46" height="46" viewBox="0 0 46 46" fill="none" xmlns="http://www.w3.org/2000/svg">
<path d="M34.3805 13.3177C30.8293 11.2293 26.9745 10.1345 23.0001 10.1345C9.46388 10.1345 1.91455 22.7214 1.6377 22.9869C1.94522 23.2818 9.06604 35.8485 23.0001 35.8485C36.5364 35.8485 44.126 23.2136 44.3625 22.9869C43.9369 22.4844 40.9205 17.1538 34.3805 13.3177ZM23.0001 32.2697C17.8849 32.2697 13.7265 28.1113 13.7265 22.9961C13.7265 17.8809 17.8849 13.7225 23.0001 13.7225C28.1153 13.7225 32.2737 17.8809 32.2737 22.9961C32.2737 28.1113 28.1153 32.2697 23.0001 32.2697Z" fill="#121212"/>
<path d="M24.9941 20.9891C23.5909 19.5859 23.9839 17.942 23.9205 17.4717H23.0005C19.9566 17.4717 17.4805 19.9478 17.4805 22.9917C17.4805 25.9835 20.0087 28.5117 23.0005 28.5117C26.0444 28.5117 28.5205 26.0356 28.5205 22.9917V22.0717C28.0403 22.0064 26.4027 22.3958 24.9941 20.9891Z" fill="#121212"/>
<path d="M22.0774 3.69482H23.9174V7.4015H22.0774V3.69482Z" fill="#121212"/>
<path d="M35.209 9.50122L37.8307 6.87955L39.1317 8.18063L36.5101 10.8023L35.209 9.50122Z" fill="#121212"/>
<path d="M6.8584 8.17725L8.15947 6.87617L10.7805 9.49719L9.47942 10.7983L6.8584 8.17725Z" fill="#121212"/>
<path d="M22.0774 38.5979H23.9174V42.3055H22.0774V38.5979Z" fill="#121212"/>
<path d="M6.85059 37.8254L9.4716 35.2044L10.7727 36.5055L8.15166 39.1265L6.85059 37.8254Z" fill="#121212"/>
<path d="M35.2051 36.5022L36.5062 35.2011L39.1278 37.8228L37.8267 39.1239L35.2051 36.5022Z" fill="#121212"/>
</svg>
