<svg width="46" height="43" viewBox="0 0 46 43" fill="none" xmlns="http://www.w3.org/2000/svg">
<path d="M0 35.9658V41.2775C2.99053 40.7602 5.89775 40.4986 8.65675 40.4986C13.3213 40.4986 17.7533 41.2484 21.854 42.7306V37.479C16.1345 34.8692 8.88441 34.3626 0 35.9658Z" fill="#450101"/>
<path d="M22.8049 18.755C22.83 18.755 22.8552 18.7521 22.8804 18.7521C22.9046 18.7521 22.9269 18.755 22.9511 18.756C28.0904 18.7172 32.2599 14.5283 32.2599 9.37944C32.2599 4.20728 28.0526 0 22.8804 0C17.7083 0 13.501 4.20728 13.501 9.37944C13.501 14.5254 17.6676 18.7143 22.8049 18.755Z" fill="#450101"/>
<path d="M23.9072 37.479V42.7306C30.4327 40.3726 37.7129 39.8863 45.7613 41.2774V35.9658C36.8769 34.3625 29.6258 34.8692 23.9072 37.479Z" fill="#450101"/>
<path d="M40.2637 33.171C39.3647 30.5641 37.8776 28.1751 35.8994 26.197C32.44 22.7376 27.8433 20.8272 22.9511 20.8088C22.9269 20.8088 22.9046 20.8127 22.8804 20.8127C22.8552 20.8127 22.83 20.8088 22.8048 20.8088C14.956 20.8407 8.04981 25.8453 5.50781 33.1691C12.3007 32.6149 18.0793 33.4626 22.8804 35.7014C27.6835 33.4616 33.4659 32.6149 40.2637 33.171Z" fill="#450101"/>
</svg>
